<svg width="316" height="226" viewBox="0 0 316 226" fill="none" xmlns="http://www.w3.org/2000/svg">
	<mask id="path-1-inside-1_3106_71472" fill="white">
		<path fill-rule="evenodd" clip-rule="evenodd" d="M276.367 48.7448C269.059 63.8634 246.635 69.1208 220.411 63.9178C228.318 74.6681 231.814 86.0919 229.613 97.114C227.998 105.203 223.467 112.314 216.652 118.249C271.751 135.216 308.903 169.306 304.238 202.907C298.547 243.897 232.78 268.637 157.343 258.166C81.9055 247.694 25.3651 205.976 31.0561 164.986C33.5743 146.849 47.8553 131.893 69.532 121.761C32.1053 105.106 8.73151 78.5563 13.6347 53.9995C20.127 21.4835 73.7385 4.77562 133.379 16.6814C137.98 17.5998 142.483 18.6617 146.871 19.8544C137.145 6.66077 133.702 -6.95832 138.892 -17.6941C148.99 -38.5847 187.951 -40.6471 225.914 -22.3004C263.877 -3.95383 286.466 27.8542 276.367 48.7448Z"/>
	</mask>
	<path d="M220.411 63.9178L220.606 62.9369L218.08 62.4357L219.606 64.5103L220.411 63.9178ZM276.367 48.7448L277.268 49.18L276.367 48.7448ZM229.613 97.114L230.594 97.3098L229.613 97.114ZM216.652 118.249L215.995 117.495L214.639 118.676L216.357 119.205L216.652 118.249ZM304.238 202.907L305.229 203.044L304.238 202.907ZM157.343 258.166L157.205 259.156L157.343 258.166ZM31.0561 164.986L30.0656 164.849L31.0561 164.986ZM69.532 121.761L69.9554 122.667L71.9415 121.739L69.9386 120.848L69.532 121.761ZM13.6347 53.9995L12.654 53.8037H12.654L13.6347 53.9995ZM133.379 16.6814L133.184 17.662L133.379 16.6814ZM146.871 19.8544L146.609 20.8194L149.38 21.5725L147.676 19.261L146.871 19.8544ZM138.892 -17.6941L139.792 -17.2589L138.892 -17.6941ZM225.914 -22.3004L226.349 -23.2008L225.914 -22.3004ZM220.217 64.8987C233.434 67.521 245.754 67.5211 255.735 64.9196C265.716 62.3179 273.447 57.084 277.268 49.18L275.467 48.3096C271.98 55.5243 264.844 60.4783 255.23 62.9842C245.616 65.4903 233.612 65.5175 220.606 62.9369L220.217 64.8987ZM230.594 97.3098C232.865 85.9337 229.236 74.2286 221.217 63.3253L219.606 64.5103C227.4 75.1076 230.762 86.25 228.632 96.9182L230.594 97.3098ZM217.309 119.003C224.258 112.951 228.928 105.654 230.594 97.3098L228.632 96.9182C227.068 104.753 222.675 111.677 215.995 117.495L217.309 119.003ZM216.357 119.205C243.8 127.655 266.714 140.353 282.167 155.065C297.629 169.784 305.52 186.406 303.248 202.769L305.229 203.044C307.622 185.807 299.269 168.584 283.546 153.616C267.815 138.64 244.603 125.81 216.946 117.294L216.357 119.205ZM303.248 202.769C300.476 222.73 283.033 238.952 256.593 248.898C230.195 258.829 195.066 262.392 157.48 257.175L157.205 259.156C195.056 264.41 230.53 260.839 257.297 250.77C284.023 240.717 302.309 224.074 305.229 203.044L303.248 202.769ZM157.48 257.175C119.894 251.958 87.0649 238.961 64.37 222.216C41.6397 205.444 29.2753 185.085 32.0466 165.124L30.0656 164.849C27.1459 185.878 40.2061 206.872 63.1826 223.825C86.1944 240.804 119.354 253.902 157.205 259.156L157.48 257.175ZM32.0466 165.124C34.4992 147.459 48.4346 132.726 69.9554 122.667L69.1086 120.855C47.276 131.06 32.6495 146.238 30.0656 164.849L32.0466 165.124ZM12.654 53.8037C10.1233 66.4785 14.9151 79.5551 24.9441 91.487C34.9753 103.421 50.3134 114.303 69.1254 122.675L69.9386 120.848C51.3239 112.564 36.2618 101.844 26.4752 90.2002C16.6864 78.5541 12.2429 66.0774 14.6153 54.1953L12.654 53.8037ZM133.575 15.7007C103.623 9.72156 75.1367 10.9156 53.2788 17.7276C31.462 24.5267 16.0055 37.0184 12.654 53.8037L14.6153 54.1953C17.7562 38.4647 32.3515 26.3444 53.8738 19.637C75.3549 12.9425 103.495 11.7354 133.184 17.662L133.575 15.7007ZM147.133 18.8894C142.723 17.6907 138.198 16.6236 133.575 15.7007L133.184 17.662C137.762 18.576 142.242 19.6327 146.609 20.8194L147.133 18.8894ZM137.991 -18.1293C132.563 -6.9005 136.25 7.13123 146.066 20.4478L147.676 19.261C138.041 6.1903 134.841 -7.01615 139.792 -17.2589L137.991 -18.1293ZM226.349 -23.2008C207.245 -32.4332 187.847 -36.5539 171.9 -35.7099C155.995 -34.8679 143.272 -29.0544 137.991 -18.1293L139.792 -17.2589C144.609 -27.2244 156.416 -32.8874 172.006 -33.7126C187.556 -34.5357 206.619 -30.5143 225.479 -21.4001L226.349 -23.2008ZM277.268 49.18C282.549 38.2549 279.2 24.6744 269.979 11.6892C260.733 -1.32945 245.453 -13.9685 226.349 -23.2008L225.479 -21.4001C244.338 -12.2858 259.333 0.152504 268.348 12.8472C277.387 25.5753 280.284 38.3442 275.467 48.3096L277.268 49.18Z" fill="#CFB9F6" mask="url(#path-1-inside-1_3106_71472)"/>
	<ellipse cx="27.2467" cy="27.2441" rx="27.2467" ry="27.2441" transform="matrix(0.973576 -0.228361 0.228407 0.973566 74.8554 34.8262)" fill="#BEA0F2"/>
	<path d="M111.02 73.0414L110.164 69.3943C106.032 70.2325 102.413 69.1576 99.9324 67.1596L100.786 65.9536C102.87 67.5638 106.062 68.8699 109.873 68.151L106.781 54.9719C102.322 54.7934 97.8859 54.5223 96.7774 49.7978C95.7565 45.4462 99.0498 41.9628 103.456 40.7982L102.58 37.0683L103.907 36.7572L104.792 40.5285C108.363 39.9094 111.356 40.7377 113.654 42.5162L112.841 43.7124C110.575 41.8828 107.909 41.3277 105.083 41.7719L107.854 53.5833C112.415 53.8252 117.086 54.3476 118.311 59.5695C119.011 62.5534 118.159 67.1255 111.481 69.0418L112.346 72.7303L111.02 73.0414ZM116.86 59.9097C115.897 55.8068 112.188 55.2778 108.195 55.0338L111.199 67.8399C116.758 66.1862 117.443 62.3964 116.86 59.9097ZM98.2281 49.4575C99.0448 52.9387 102.54 53.2994 106.441 53.5214L103.747 42.0415C99.9218 43.07 97.46 46.1834 98.2281 49.4575Z" fill="#674399"/>
	<path d="M259.438 114.219L185.36 40.297C179.669 34.6174 173.262 34.574 167.578 40.2464L125.445 82.2944C119.769 87.9596 119.805 94.3618 125.496 100.041L199.574 173.971C205.265 179.65 211.672 179.693 217.356 174.021L259.488 131.973C265.165 126.308 265.129 119.906 259.438 114.226V114.219Z" fill="#674399"/>
	<path d="M134.945 109.465L223.149 168.234L259.489 131.966C265.165 126.301 265.129 119.899 259.438 114.219L231.91 86.7461L134.293 108.814L134.952 109.472L134.945 109.465Z" fill="#3C2861"/>
	<path d="M224.879 107.723H120.117C112.065 107.723 107.511 112.217 107.511 120.231V179.701C107.511 187.714 112.073 192.209 120.124 192.209H224.879C232.931 192.209 237.485 187.714 237.485 179.701V120.231C237.485 112.217 232.923 107.723 224.872 107.723H224.879Z" fill="#BEA0F2"/>
	<path d="M237.485 127.37H107.511V140.941H237.485V127.37Z" fill="#674399"/>
	<path d="M186.44 152.733H121.188V159.237H186.44V152.733Z" fill="#674399"/>
	<path d="M154.002 165.972H121.377V172.475H154.002V165.972Z" fill="#674399"/>
	<path d="M270.199 200.615C270.199 215.661 258 227.859 242.952 227.859C227.904 227.859 215.705 215.661 215.705 200.615C215.705 185.569 227.904 173.371 242.952 173.371C258 173.371 270.199 185.569 270.199 200.615Z" fill="#EAE1FF"/>
	<path d="M239.523 213.622C233.721 212.239 229.92 207.346 229.936 201.193L244.357 204.632L244.664 203.376L229.994 199.878C230.055 199.095 230.208 198.29 230.403 197.495C230.608 196.658 230.844 195.872 231.163 195.107L245.833 198.605L246.14 197.35L231.719 193.911C234.553 188.429 240.22 185.883 245.98 187.257C249.42 188.077 252.221 190.428 253.564 193.362L254.826 192.688C253.078 189.259 250.183 186.93 246.288 186.001C239.782 184.45 233.318 187.382 230.269 193.565L227.948 193.011L227.641 194.267L229.713 194.761C229.394 195.526 229.157 196.312 228.952 197.149C228.758 197.944 228.604 198.749 228.544 199.532L226.472 199.038L226.165 200.293L228.444 200.837C228.285 207.753 232.668 213.317 239.216 214.878C243.111 215.807 246.619 215.093 249.957 212.744L249.095 211.609C246.543 213.613 242.962 214.443 239.523 213.622Z" fill="#674399"/>
	<path d="M26.9008 38.0685C26.1194 33.6372 25.7287 31.4216 26.5833 29.6693C26.8593 29.1035 27.2227 28.5845 27.6601 28.1316C29.0143 26.7293 31.23 26.3386 35.6613 25.5572L46.8881 23.5776C51.3194 22.7963 53.5351 22.4056 55.2873 23.2602C55.8532 23.5362 56.3721 23.8996 56.825 24.3369C58.2274 25.6912 58.6181 27.9068 59.3994 32.3382L61.379 43.565C62.1604 47.9963 62.551 50.2119 61.6964 51.9642C61.4204 52.53 61.0571 53.049 60.6197 53.5019C59.2655 54.9042 57.0498 55.2949 52.6185 56.0763L41.3917 58.0559C36.9604 58.8372 34.7447 59.2279 32.9925 58.3733C32.4266 58.0973 31.9077 57.7339 31.4548 57.2966C30.0524 55.9423 29.6617 53.7267 28.8803 49.2953L26.9008 38.0685Z" fill="#7F54B3"/>
	<path fill-rule="evenodd" clip-rule="evenodd" d="M35.3575 37.3791L51.3863 34.5528C51.6275 34.5101 51.8749 34.5157 52.114 34.5693C52.353 34.6228 52.5791 34.7233 52.7791 34.8648C53.1852 35.1521 53.4614 35.5882 53.5477 36.0782L54.6353 42.2465C54.7222 42.7363 54.6122 43.2407 54.3292 43.6498C54.1898 43.8514 54.0119 44.0232 53.8057 44.1555C53.5994 44.2878 53.369 44.3779 53.1277 44.4205L47.3789 45.4342L48.5091 47.2452L44.6932 45.9078L37.0975 47.2471C36.086 47.4245 35.1202 46.7416 34.9393 45.7209L33.8514 39.5512C33.6724 38.5306 34.3463 37.5584 35.3575 37.3791Z" fill="white"/>
	<path d="M34.9134 39.0768C34.9588 38.99 35.023 38.9145 35.1014 38.8558C35.1799 38.7972 35.2704 38.7568 35.3665 38.7378C35.7654 38.6373 36.0317 38.7909 36.1654 39.1988C36.7146 40.8509 37.2353 42.2434 37.7277 43.3761L38.8752 39.6784C38.9807 39.3446 39.1502 39.1472 39.388 39.0851C39.7328 38.9984 39.9915 39.1873 40.1634 39.6517C40.4944 40.5722 40.9111 41.4595 41.4081 42.3019C41.2529 40.2017 41.3398 38.6492 41.669 37.6448C41.6974 37.5344 41.7554 37.4338 41.8368 37.354C41.9182 37.2742 42.0199 37.2181 42.1309 37.192C42.2201 37.1688 42.313 37.1634 42.4043 37.1761C42.4956 37.1888 42.5834 37.2194 42.6629 37.2661C42.8264 37.3523 42.9454 37.5072 42.9879 37.69C43.0226 37.8222 43.0187 37.9616 42.9766 38.0917C42.7699 38.7353 42.6862 39.7595 42.7253 41.1643C42.7609 42.5207 42.87 43.567 43.0532 44.3034C43.1035 44.483 43.104 44.6729 43.0548 44.8529C43.0307 44.9411 42.9832 45.0213 42.9175 45.085C42.8518 45.1486 42.7701 45.1935 42.6811 45.2148C42.4714 45.2668 42.2436 45.2032 41.9982 45.0241C41.1215 44.3789 40.3318 43.3288 39.6291 41.8736C39.2985 43.0056 39.0526 43.8554 38.8918 44.4225C38.5875 45.4262 38.2702 45.9682 37.9396 46.0483C37.7248 46.1026 37.5063 45.9493 37.2839 45.5888C36.6901 44.5958 35.8908 42.6147 34.8858 39.6458C34.8514 39.554 34.8361 39.4562 34.8409 39.3584C34.8457 39.2605 34.8704 39.1647 34.9136 39.0767L34.9134 39.0768Z" fill="#7F54B3"/>
	<path fill-rule="evenodd" clip-rule="evenodd" d="M50.915 36.7064C51.4768 36.7169 52.0076 36.9872 52.3629 37.4429C52.6999 37.8434 52.925 38.3645 53.0381 39.0065C53.1906 39.8301 53.1191 40.6796 52.8311 41.4661C52.5007 42.3803 51.9488 42.9055 51.1755 43.0419C51.0297 43.0669 50.8816 43.0761 50.7338 43.0693C50.1721 43.0587 49.641 42.7885 49.2859 42.3325C48.9476 41.9242 48.7218 41.3992 48.6086 40.7572C48.4553 39.9377 48.5276 39.0919 48.8179 38.3102C49.1558 37.3948 49.7075 36.8696 50.4735 36.7345C50.6192 36.7092 50.7673 36.6998 50.915 36.7064ZM51.3685 41.2591C51.6168 40.9314 51.7475 40.4855 51.7614 39.9216L51.7618 39.9241C51.766 39.7168 51.7496 39.5096 51.7128 39.3053C51.6651 39.047 51.5723 38.7992 51.4387 38.5731C51.2656 38.2767 51.078 38.1253 50.876 38.1195C50.5757 38.1051 50.3284 38.3243 50.1336 38.7776C49.9832 39.1117 49.899 39.4718 49.8856 39.838C49.8815 40.0455 49.898 40.253 49.9346 40.4576C49.9826 40.7155 50.0754 40.9627 50.2085 41.1873C50.381 41.4815 50.569 41.6328 50.7719 41.6408C50.9749 41.6489 51.1739 41.5219 51.3685 41.2591ZM45.9924 37.5744C46.5542 37.5854 47.085 37.8554 47.4405 38.3109L47.4397 38.311C47.7762 38.7115 48.0011 39.2328 48.1143 39.8747C48.2669 40.6983 48.1956 41.5477 47.9077 42.3343C47.5773 43.2484 47.0254 43.7737 46.2519 43.91C46.1058 43.935 45.9575 43.9443 45.8094 43.9376C45.2476 43.9266 44.7165 43.6566 44.3613 43.2008C44.0234 42.7925 43.7979 42.2674 43.6847 41.6254C43.5314 40.8059 43.6037 39.9601 43.894 39.1785C44.2314 38.2631 44.7833 37.7378 45.5501 37.6026C45.6961 37.5774 45.8443 37.5679 45.9924 37.5744ZM46.4458 42.1271C46.6946 41.7993 46.8255 41.3533 46.8387 40.7896L46.8392 40.7921C46.8436 40.5847 46.8271 40.3776 46.7903 40.1732C46.7422 39.9151 46.6493 39.6673 46.516 39.4411C46.3431 39.1446 46.1554 38.9933 45.9533 38.9875C45.653 38.9731 45.4054 39.1924 45.211 39.6456C45.0604 39.9797 44.9761 40.3398 44.9627 40.706C44.9583 40.9134 44.9746 41.1211 45.0112 41.3257C45.0594 41.5836 45.1525 41.831 45.2856 42.0553C45.4582 42.3518 45.6461 42.5026 45.8483 42.5089C46.0504 42.5152 46.2506 42.3877 46.4458 42.1271Z" fill="#7F54B3"/>
</svg>
