<svg width="476" height="57" viewBox="0 0 476 57" fill="none" xmlns="http://www.w3.org/2000/svg">
<path d="M149.393 0.000976562C136.584 0.000976562 126.779 9.57982 126.779 22.5019C126.779 35.4239 136.584 45.0028 149.393 45.0028C162.202 45.0028 171.969 35.4239 171.969 22.5019C171.969 9.57982 162.127 0.000976562 149.393 0.000976562ZM149.393 31.1792C144.585 31.1792 141.279 27.4979 141.279 22.5019C141.279 17.5059 144.547 13.8246 149.393 13.8246C154.239 13.8246 157.507 17.5059 157.507 22.5019C157.507 27.4979 154.201 31.1792 149.393 31.1792Z" fill="#873DFF"/>
<path d="M101.535 0.000976562C88.7255 0.000976562 78.9213 9.57982 78.9213 22.5019C78.9213 35.4239 88.7631 45.0028 101.535 45.0028C114.307 45.0028 124.111 35.4239 124.111 22.5019C124.111 9.57982 114.269 0.000976562 101.535 0.000976562ZM101.535 31.1792C96.7266 31.1792 93.421 27.4979 93.421 22.5019C93.421 17.5059 96.6891 13.8246 101.535 13.8246C106.381 13.8246 109.649 17.5059 109.649 22.5019C109.649 27.4979 106.381 31.1792 101.535 31.1792Z" fill="#873DFF"/>
<path d="M22.0877 45.0028C27.1588 45.0028 31.2158 42.486 34.296 36.7011L41.0951 23.9669V34.7853C41.0951 41.1337 45.2272 45.0028 51.6507 45.0028C56.6091 45.0028 60.2528 42.7489 63.859 36.7011L79.5983 10.2184C83.0542 4.43354 80.6126 0.000976562 73.0246 0.000976562C68.9677 0.000976562 66.3382 1.35328 63.9717 5.78585L53.1156 26.108V8.0397C53.1156 2.63046 50.5613 0.000976563 45.7906 0.000976563C42.0718 0.000976563 39.1042 1.61623 36.7753 6.12393L26.5578 26.0705V8.22752C26.5578 2.44264 24.1913 0.000976563 18.4064 0.000976563H6.68641C2.25385 0.000976563 0 2.067 0 5.89854C0 9.73008 2.32897 11.8712 6.68641 11.8712H11.4946V34.7478C11.5322 41.1337 15.7769 45.0028 22.0877 45.0028Z" fill="#873DFF"/>
<path d="M200.266 45.0002C196.05 45.0002 192.225 44.0656 188.791 42.1966C185.401 40.3275 182.728 37.6978 180.772 34.3074C178.816 30.8735 177.838 26.9398 177.838 22.5062C177.838 18.0291 178.816 14.0954 180.772 10.705C182.728 7.27111 185.401 4.64137 188.791 2.81577C192.225 0.946706 196.05 0.0121734 200.266 0.0121734C203.048 0.0121734 205.526 0.425107 207.699 1.25097C209.916 2.07684 211.829 3.18524 213.437 4.57617C215.089 5.96711 216.501 7.57537 217.675 9.40097L211.807 12.4654C210.677 10.5528 209.068 9.03151 206.982 7.90137C204.939 6.72777 202.592 6.14097 199.94 6.14097C197.115 6.14097 194.551 6.81471 192.247 8.16217C189.987 9.50964 188.183 11.4439 186.835 13.965C185.531 16.4426 184.879 19.2896 184.879 22.5062C184.879 25.7227 185.531 28.5915 186.835 31.1126C188.183 33.5902 190.008 35.5027 192.312 36.8502C194.616 38.1976 197.18 38.8714 200.006 38.8714C202.614 38.8714 204.939 38.3063 206.982 37.1762C209.068 36.0026 210.677 34.4595 211.807 32.547L217.675 35.6114C216.458 37.4804 215.045 39.1104 213.437 40.5014C211.829 41.8488 209.916 42.9355 207.699 43.7614C205.526 44.5872 203.048 45.0002 200.266 45.0002ZM235.976 45.0002C232.803 45.0002 229.999 44.2612 227.565 42.7834C225.131 41.3055 223.262 39.306 221.958 36.785C220.654 34.2639 220.002 31.482 220.002 28.4394C220.002 25.4402 220.654 22.68 221.958 20.159C223.262 17.6379 225.131 15.6384 227.565 14.1606C229.999 12.6827 232.803 11.9438 235.976 11.9438C239.192 11.9438 241.996 12.6827 244.386 14.1606C246.821 15.6384 248.69 17.6379 249.994 20.159C251.341 22.6366 252.015 25.3967 252.015 28.4394C252.015 31.482 251.341 34.2639 249.994 36.785C248.69 39.306 246.821 41.3055 244.386 42.7834C241.996 44.2612 239.192 45.0002 235.976 45.0002ZM235.976 39.5234C237.932 39.5234 239.627 39.0235 241.061 38.0238C242.539 37.024 243.648 35.6766 244.386 33.9814C245.169 32.2862 245.56 30.4388 245.56 28.4394C245.56 26.4834 245.169 24.6578 244.386 22.9626C243.648 21.2674 242.539 19.9199 241.061 18.9202C239.627 17.9204 237.932 17.4206 235.976 17.4206C234.02 17.4206 232.303 17.9204 230.825 18.9202C229.39 19.9199 228.282 21.2674 227.5 22.9626C226.761 24.6578 226.391 26.4834 226.391 28.4394C226.391 30.4388 226.761 32.2862 227.5 33.9814C228.282 35.6766 229.39 37.024 230.825 38.0238C232.303 39.0235 234.02 39.5234 235.976 39.5234ZM295.651 23.3538C295.651 21.5282 295.216 20.0938 294.347 19.0506C293.478 17.9639 292.195 17.4206 290.5 17.4206C288.892 17.4206 287.392 17.8552 286.001 18.7246C284.61 19.5504 283.502 20.5502 282.676 21.7238C282.589 21.8542 282.502 21.9846 282.415 22.115C282.328 22.2019 282.263 22.3323 282.22 22.5062L281.829 18.3986C282.741 16.6599 284.219 15.1603 286.262 13.8998C288.349 12.5958 290.674 11.9438 293.239 11.9438C295.108 11.9438 296.672 12.335 297.933 13.1174C299.237 13.8563 300.215 14.943 300.867 16.3774C301.519 17.8118 301.845 19.507 301.845 21.463V44.2178H295.651V23.3538ZM257.313 44.2178V12.7262H263.442V44.2178H257.313ZM276.482 23.3538C276.482 21.5282 276.026 20.0938 275.113 19.0506C274.244 17.9639 272.961 17.4206 271.266 17.4206C269.701 17.4206 268.245 17.8335 266.898 18.6594C265.55 19.4852 264.442 20.5067 263.573 21.7238C263.486 21.8542 263.399 22.0063 263.312 22.1802C263.225 22.3106 263.116 22.441 262.986 22.5714L263.181 17.551C263.573 16.8555 264.268 16.0731 265.268 15.2038C266.311 14.291 267.572 13.5303 269.049 12.9218C270.527 12.2698 272.136 11.9438 273.874 11.9438C275.7 11.9438 277.265 12.3132 278.569 13.0522C279.873 13.7911 280.851 14.8343 281.503 16.1818C282.198 17.5292 282.568 19.0723 282.611 20.811V21.137C282.611 21.1804 282.611 21.2239 282.611 21.2674C282.611 21.2674 282.611 21.2891 282.611 21.3326C282.611 21.3326 282.611 21.3543 282.611 21.3978C282.611 21.3978 282.611 21.4412 282.611 21.5282V44.2178H276.482V23.3538ZM347.434 23.3538C347.434 21.5282 346.999 20.0938 346.13 19.0506C345.261 17.9639 343.978 17.4206 342.283 17.4206C340.675 17.4206 339.175 17.8552 337.784 18.7246C336.394 19.5504 335.285 20.5502 334.459 21.7238C334.372 21.8542 334.285 21.9846 334.198 22.115C334.112 22.2019 334.046 22.3323 334.003 22.5062L333.612 18.3986C334.524 16.6599 336.002 15.1603 338.045 13.8998C340.132 12.5958 342.457 11.9438 345.022 11.9438C346.891 11.9438 348.456 12.335 349.716 13.1174C351.02 13.8563 351.998 14.943 352.65 16.3774C353.302 17.8118 353.628 19.507 353.628 21.463V44.2178H347.434V23.3538ZM309.096 44.2178V12.7262H315.225V44.2178H309.096ZM328.265 23.3538C328.265 21.5282 327.809 20.0938 326.896 19.0506C326.027 17.9639 324.744 17.4206 323.049 17.4206C321.484 17.4206 320.028 17.8335 318.681 18.6594C317.333 19.4852 316.225 20.5067 315.356 21.7238C315.269 21.8542 315.182 22.0063 315.095 22.1802C315.008 22.3106 314.899 22.441 314.769 22.5714L314.964 17.551C315.356 16.8555 316.051 16.0731 317.051 15.2038C318.094 14.291 319.355 13.5303 320.832 12.9218C322.31 12.2698 323.919 11.9438 325.657 11.9438C327.483 11.9438 329.048 12.3132 330.352 13.0522C331.656 13.7911 332.634 14.8343 333.286 16.1818C333.981 17.5292 334.351 19.0723 334.394 20.811V21.137C334.394 21.1804 334.394 21.2239 334.394 21.2674C334.394 21.2674 334.394 21.2891 334.394 21.3326C334.394 21.3326 334.394 21.3543 334.394 21.3978C334.394 21.3978 334.394 21.4412 334.394 21.5282V44.2178H328.265V23.3538ZM375.289 45.0002C372.203 45.0002 369.399 44.3264 366.878 42.979C364.4 41.588 362.444 39.632 361.01 37.111C359.619 34.5899 358.924 31.6994 358.924 28.4394C358.924 25.3967 359.597 22.6366 360.945 20.159C362.336 17.6379 364.226 15.6384 366.617 14.1606C369.051 12.6827 371.768 11.9438 374.767 11.9438C377.853 11.9438 380.548 12.6827 382.852 14.1606C385.199 15.6384 387.003 17.6814 388.264 20.2894C389.524 22.8539 390.154 25.7662 390.154 29.0262C390.154 29.2435 390.154 29.4826 390.154 29.7434C390.154 30.0042 390.154 30.265 390.154 30.5258H362.705V26.0922H386.96L384.156 27.2006C384.156 25.5923 383.852 24.0275 383.243 22.5062C382.678 20.9414 381.7 19.6374 380.309 18.5942C378.918 17.551 377.071 17.0294 374.767 17.0294C372.55 17.0294 370.725 17.551 369.29 18.5942C367.856 19.6374 366.813 20.9848 366.161 22.6366C365.552 24.2883 365.248 26.0487 365.248 27.9178V28.7654C365.248 30.7648 365.639 32.6122 366.422 34.3074C367.247 36.0026 368.464 37.3718 370.073 38.415C371.681 39.4147 373.637 39.9146 375.941 39.9146C377.592 39.9146 379.244 39.6103 380.896 39.0018C382.548 38.3498 383.96 37.437 385.134 36.2634L387.938 40.3058C386.373 41.8271 384.504 43.0007 382.33 43.8266C380.157 44.609 377.81 45.0002 375.289 45.0002ZM395.344 44.2178V12.7262H401.473V44.2178H395.344ZM400.951 18.2682C401.733 17.0946 402.69 16.0296 403.82 15.0734C404.95 14.1171 406.189 13.3782 407.536 12.8566C408.927 12.2915 410.34 12.009 411.774 12.009V18.203C411.209 18.0726 410.535 18.0074 409.753 18.0074C408.666 18.0074 407.515 18.2682 406.297 18.7898C405.08 19.2679 403.994 19.9199 403.037 20.7458C402.081 21.5282 401.429 22.3323 401.081 23.1582L400.951 18.2682ZM429.758 45.0002C426.672 45.0002 423.89 44.3047 421.412 42.9138C418.978 41.4794 417.065 39.5016 415.675 36.9806C414.327 34.4595 413.653 31.6124 413.653 28.4394C413.653 25.3098 414.327 22.4844 415.675 19.9634C417.065 17.4423 418.978 15.4863 421.412 14.0954C423.89 12.661 426.672 11.9438 429.758 11.9438C432.583 11.9438 434.952 12.4436 436.865 13.4434C438.777 14.4431 440.364 15.7906 441.624 17.4858L437.582 21.2674C436.669 19.9634 435.582 19.0071 434.322 18.3986C433.061 17.7466 431.649 17.4206 430.084 17.4206C428.084 17.4206 426.324 17.8987 424.803 18.855C423.281 19.7678 422.108 21.0718 421.282 22.767C420.456 24.4187 420.043 26.3095 420.043 28.4394C420.043 30.5692 420.456 32.4818 421.282 34.177C422.108 35.8722 423.281 37.1979 424.803 38.1542C426.324 39.067 428.084 39.5234 430.084 39.5234C431.649 39.5234 433.061 39.2191 434.322 38.6106C435.582 37.9586 436.669 36.9806 437.582 35.6766L441.624 39.4582C440.364 41.1534 438.777 42.5008 436.865 43.5006C434.952 44.5003 432.583 45.0002 429.758 45.0002ZM460.408 45.0002C457.322 45.0002 454.518 44.3264 451.997 42.979C449.519 41.588 447.563 39.632 446.129 37.111C444.738 34.5899 444.043 31.6994 444.043 28.4394C444.043 25.3967 444.716 22.6366 446.064 20.159C447.455 17.6379 449.346 15.6384 451.736 14.1606C454.17 12.6827 456.887 11.9438 459.886 11.9438C462.972 11.9438 465.667 12.6827 467.971 14.1606C470.318 15.6384 472.122 17.6814 473.383 20.2894C474.643 22.8539 475.273 25.7662 475.273 29.0262C475.273 29.2435 475.273 29.4826 475.273 29.7434C475.273 30.0042 475.273 30.265 475.273 30.5258H447.824V26.0922H472.079L469.275 27.2006C469.275 25.5923 468.971 24.0275 468.362 22.5062C467.797 20.9414 466.819 19.6374 465.428 18.5942C464.037 17.551 462.19 17.0294 459.886 17.0294C457.669 17.0294 455.844 17.551 454.409 18.5942C452.975 19.6374 451.932 20.9848 451.28 22.6366C450.671 24.2883 450.367 26.0487 450.367 27.9178V28.7654C450.367 30.7648 450.758 32.6122 451.541 34.3074C452.367 36.0026 453.584 37.3718 455.192 38.415C456.8 39.4147 458.756 39.9146 461.06 39.9146C462.712 39.9146 464.363 39.6103 466.015 39.0018C467.667 38.3498 469.079 37.437 470.253 36.2634L473.057 40.3058C471.492 41.8271 469.623 43.0007 467.449 43.8266C465.276 44.609 462.929 45.0002 460.408 45.0002Z" fill="black"/>
</svg>
