<?xml version="1.0" encoding="UTF-8"?>
<!-- Generated by Pixelmator Pro 3.6.14 -->
<svg width="476" height="47" viewBox="0 0 476 47" xmlns="http://www.w3.org/2000/svg">
    <path id="Path" fill="#873dff" stroke="none" d="M 149.393005 1.000977 C 136.584 1.000977 126.778999 10.579819 126.778999 23.5019 C 126.778999 36.423901 136.584 46.0028 149.393005 46.0028 C 162.201996 46.0028 171.968994 36.423901 171.968994 23.5019 C 171.968994 10.579819 162.126999 1.000977 149.393005 1.000977 Z M 149.393005 32.179199 C 144.585007 32.179199 141.279007 28.4979 141.279007 23.5019 C 141.279007 18.505898 144.546997 14.8246 149.393005 14.8246 C 154.238998 14.8246 157.507004 18.505898 157.507004 23.5019 C 157.507004 28.4979 154.201004 32.179199 149.393005 32.179199 Z"/>
    <path id="path1" fill="#873dff" stroke="none" d="M 101.535004 1.000977 C 88.725502 1.000977 78.921303 10.579819 78.921303 23.5019 C 78.921303 36.423901 88.7631 46.0028 101.535004 46.0028 C 114.306999 46.0028 124.111 36.423901 124.111 23.5019 C 124.111 10.579819 114.268997 1.000977 101.535004 1.000977 Z M 101.535004 32.179199 C 96.726601 32.179199 93.420998 28.4979 93.420998 23.5019 C 93.420998 18.505898 96.689102 14.8246 101.535004 14.8246 C 106.380997 14.8246 109.649002 18.505898 109.649002 23.5019 C 109.649002 28.4979 106.380997 32.179199 101.535004 32.179199 Z"/>
    <path id="path2" fill="#873dff" stroke="none" d="M 22.0877 46.0028 C 27.1588 46.0028 31.215799 43.486 34.296001 37.701099 L 41.0951 24.9669 L 41.0951 35.785301 C 41.0951 42.133701 45.2272 46.0028 51.6507 46.0028 C 56.6091 46.0028 60.2528 43.748901 63.859001 37.701099 L 79.598297 11.218399 C 83.054199 5.43354 80.612602 1.000977 73.024597 1.000977 C 68.967697 1.000977 66.338203 2.353279 63.971699 6.785851 L 53.115601 27.108 L 53.115601 9.0397 C 53.115601 3.630459 50.561298 1.000977 45.7906 1.000977 C 42.0718 1.000977 39.104198 2.61623 36.775299 7.123932 L 26.5578 27.070499 L 26.5578 9.22752 C 26.5578 3.442638 24.191299 1.000977 18.406401 1.000977 L 6.68641 1.000977 C 2.25385 1.000977 0 3.067001 0 6.89854 C 0 10.73008 2.32897 12.871201 6.68641 12.871201 L 11.4946 12.871201 L 11.4946 35.747799 C 11.5322 42.133701 15.7769 46.0028 22.0877 46.0028 Z"/>
    <path id="path3" fill="#000000" stroke="none" d="M 200.266006 46.000198 C 196.050003 46.000198 192.225006 45.065601 188.791 43.196602 C 185.401001 41.327499 182.727997 38.6978 180.772003 35.3074 C 178.815994 31.873501 177.837997 27.9398 177.837997 23.506203 C 177.837997 19.029099 178.815994 15.095398 180.772003 11.705002 C 182.727997 8.271111 185.401001 5.641369 188.791 3.815769 C 192.225006 1.946705 196.050003 1.012173 200.266006 1.012173 C 203.048004 1.012173 205.526001 1.425106 207.699005 2.250969 C 209.916 3.076839 211.828995 4.185242 213.436996 5.576172 C 215.089005 6.96711 216.501007 8.575371 217.675003 10.40097 L 211.807007 13.465401 C 210.677002 11.552799 209.067993 10.031509 206.981995 8.901371 C 204.938995 7.727768 202.591995 7.140968 199.940002 7.140968 C 197.115005 7.140968 194.550995 7.814709 192.246994 9.16217 C 189.987 10.50964 188.182999 12.443901 186.835007 14.965 C 185.531006 17.4426 184.878998 20.2896 184.878998 23.506203 C 184.878998 26.7227 185.531006 29.591499 186.835007 32.112602 C 188.182999 34.590199 190.007996 36.502701 192.311996 37.850201 C 194.615997 39.197601 197.179993 39.871399 200.005997 39.871399 C 202.613998 39.871399 204.938995 39.306301 206.981995 38.176201 C 209.067993 37.002602 210.677002 35.459499 211.807007 33.547001 L 217.675003 36.611401 C 216.457993 38.4804 215.044998 40.110401 213.436996 41.5014 C 211.828995 42.848801 209.916 43.935501 207.699005 44.761398 C 205.526001 45.5872 203.048004 46.000198 200.266006 46.000198 Z M 235.975998 46.000198 C 232.802994 46.000198 229.998993 45.2612 227.565002 43.783401 C 225.130997 42.3055 223.261993 40.306 221.957993 37.785 C 220.654007 35.263901 220.001999 32.482002 220.001999 29.4394 C 220.001999 26.440201 220.654007 23.68 221.957993 21.159 C 223.261993 18.637901 225.130997 16.638401 227.565002 15.160599 C 229.998993 13.682701 232.802994 12.943802 235.975998 12.943802 C 239.192001 12.943802 241.996002 13.682701 244.386002 15.160599 C 246.820999 16.638401 248.690002 18.637901 249.994003 21.159 C 251.341003 23.6366 252.014999 26.3967 252.014999 29.4394 C 252.014999 32.482002 251.341003 35.263901 249.994003 37.785 C 248.690002 40.306 246.820999 42.3055 244.386002 43.783401 C 241.996002 45.2612 239.192001 46.000198 235.975998 46.000198 Z M 235.975998 40.523399 C 237.932007 40.523399 239.626999 40.023499 241.061005 39.0238 C 242.539001 38.023998 243.647995 36.676601 244.386002 34.9814 C 245.169006 33.286201 245.559998 31.438801 245.559998 29.4394 C 245.559998 27.4834 245.169006 25.657799 244.386002 23.962601 C 243.647995 22.267403 242.539001 20.919899 241.061005 19.9202 C 239.626999 18.920403 237.932007 18.420601 235.975998 18.420601 C 234.020004 18.420601 232.302994 18.920403 230.824997 19.9202 C 229.389999 20.919899 228.281998 22.267403 227.5 23.962601 C 226.761002 25.657799 226.391006 27.4834 226.391006 29.4394 C 226.391006 31.438801 226.761002 33.286201 227.5 34.9814 C 228.281998 36.676601 229.389999 38.023998 230.824997 39.0238 C 232.302994 40.023499 234.020004 40.523399 235.975998 40.523399 Z M 295.651001 24.353798 C 295.651001 22.528198 295.216003 21.0938 294.346985 20.050598 C 293.477997 18.963898 292.195007 18.420601 290.5 18.420601 C 288.891998 18.420601 287.391998 18.855202 286.001007 19.724602 C 284.609985 20.5504 283.502014 21.550201 282.675995 22.723801 C 282.588989 22.854202 282.502014 22.9846 282.415009 23.114998 C 282.328003 23.2019 282.263 23.332298 282.220001 23.506203 L 281.82901 19.398598 C 282.740997 17.659901 284.218994 16.160301 286.261993 14.899799 C 288.348999 13.595802 290.674011 12.943802 293.239014 12.943802 C 295.108002 12.943802 296.671997 13.334999 297.933014 14.117401 C 299.237 14.8563 300.214996 15.943001 300.867004 17.377399 C 301.519012 18.811798 301.845001 20.507 301.845001 22.462997 L 301.845001 45.2178 L 295.651001 45.2178 L 295.651001 24.353798 Z M 257.312988 45.2178 L 257.312988 13.7262 L 263.441986 13.7262 L 263.441986 45.2178 L 257.312988 45.2178 Z M 276.481995 24.353798 C 276.481995 22.528198 276.026001 21.0938 275.113007 20.050598 C 274.243988 18.963898 272.960999 18.420601 271.265991 18.420601 C 269.700989 18.420601 268.244995 18.8335 266.89801 19.659401 C 265.549988 20.485199 264.441986 21.506699 263.572998 22.723801 C 263.485992 22.854202 263.398987 23.006302 263.312012 23.180199 C 263.225006 23.3106 263.115997 23.441002 262.985992 23.5714 L 263.181 18.551003 C 263.572998 17.855499 264.268005 17.073097 265.268005 16.2038 C 266.311005 15.291 267.571991 14.5303 269.049011 13.921799 C 270.527008 13.269798 272.135986 12.943802 273.873993 12.943802 C 275.700012 12.943802 277.265015 13.313202 278.569 14.0522 C 279.872986 14.7911 280.851013 15.834301 281.502991 17.181801 C 282.197998 18.529198 282.567993 20.0723 282.610992 21.811001 L 282.610992 22.137001 C 282.610992 22.180401 282.610992 22.2239 282.610992 22.267403 C 282.610992 22.267403 282.610992 22.289101 282.610992 22.3326 C 282.610992 22.3326 282.610992 22.354301 282.610992 22.3978 C 282.610992 22.3978 282.610992 22.4412 282.610992 22.528198 L 282.610992 45.2178 L 276.481995 45.2178 L 276.481995 24.353798 Z M 347.43399 24.353798 C 347.43399 22.528198 346.998993 21.0938 346.130005 20.050598 C 345.260986 18.963898 343.977997 18.420601 342.28299 18.420601 C 340.674988 18.420601 339.174988 18.855202 337.783997 19.724602 C 336.394012 20.5504 335.285004 21.550201 334.459015 22.723801 C 334.372009 22.854202 334.285004 22.9846 334.197998 23.114998 C 334.112 23.2019 334.04599 23.332298 334.002991 23.506203 L 333.612 19.398598 C 334.523987 17.659901 336.002014 16.160301 338.045013 14.899799 C 340.131989 13.595802 342.457001 12.943802 345.022003 12.943802 C 346.890991 12.943802 348.455994 13.334999 349.716003 14.117401 C 351.019989 14.8563 351.997986 15.943001 352.649994 17.377399 C 353.302002 18.811798 353.627991 20.507 353.627991 22.462997 L 353.627991 45.2178 L 347.43399 45.2178 L 347.43399 24.353798 Z M 309.096008 45.2178 L 309.096008 13.7262 L 315.225006 13.7262 L 315.225006 45.2178 L 309.096008 45.2178 Z M 328.265015 24.353798 C 328.265015 22.528198 327.80899 21.0938 326.895996 20.050598 C 326.027008 18.963898 324.743988 18.420601 323.049011 18.420601 C 321.484009 18.420601 320.028015 18.8335 318.681 19.659401 C 317.333008 20.485199 316.225006 21.506699 315.355988 22.723801 C 315.269012 22.854202 315.182007 23.006302 315.095001 23.180199 C 315.007996 23.3106 314.898987 23.441002 314.769012 23.5714 L 314.963989 18.551003 C 315.355988 17.855499 316.050995 17.073097 317.050995 16.2038 C 318.093994 15.291 319.355011 14.5303 320.832001 13.921799 C 322.309998 13.269798 323.919006 12.943802 325.657013 12.943802 C 327.483002 12.943802 329.048004 13.313202 330.35199 14.0522 C 331.656006 14.7911 332.634003 15.834301 333.286011 17.181801 C 333.980988 18.529198 334.351013 20.0723 334.394012 21.811001 L 334.394012 22.137001 C 334.394012 22.180401 334.394012 22.2239 334.394012 22.267403 C 334.394012 22.267403 334.394012 22.289101 334.394012 22.3326 C 334.394012 22.3326 334.394012 22.354301 334.394012 22.3978 C 334.394012 22.3978 334.394012 22.4412 334.394012 22.528198 L 334.394012 45.2178 L 328.265015 45.2178 L 328.265015 24.353798 Z M 375.289001 46.000198 C 372.203003 46.000198 369.398987 45.326401 366.877991 43.979 C 364.399994 42.588001 362.444 40.632 361.01001 38.111 C 359.618988 35.589901 358.924011 32.699402 358.924011 29.4394 C 358.924011 26.3967 359.596985 23.6366 360.945007 21.159 C 362.335999 18.637901 364.226013 16.638401 366.617004 15.160599 C 369.050995 13.682701 371.768005 12.943802 374.766998 12.943802 C 377.852997 12.943802 380.548004 13.682701 382.85199 15.160599 C 385.199005 16.638401 387.002991 18.6814 388.264008 21.289398 C 389.523987 23.853901 390.153992 26.766199 390.153992 30.026199 C 390.153992 30.2435 390.153992 30.482599 390.153992 30.743401 C 390.153992 31.0042 390.153992 31.264999 390.153992 31.525801 L 362.704987 31.525801 L 362.704987 27.092199 L 386.959991 27.092199 L 384.156006 28.2006 C 384.156006 26.5923 383.85199 25.0275 383.243011 23.506203 C 382.678009 21.941399 381.700012 20.637398 380.30899 19.5942 C 378.917999 18.551003 377.071014 18.0294 374.766998 18.0294 C 372.549988 18.0294 370.725006 18.551003 369.290009 19.5942 C 367.855988 20.637398 366.812988 21.984802 366.161011 23.6366 C 365.552002 25.2883 365.247986 27.0487 365.247986 28.917801 L 365.247986 29.7654 C 365.247986 31.764799 365.639008 33.612202 366.421997 35.3074 C 367.247009 37.002602 368.463989 38.371799 370.072998 39.415001 C 371.681 40.4147 373.636993 40.9146 375.94101 40.9146 C 377.59201 40.9146 379.243988 40.610298 380.895996 40.001801 C 382.548004 39.3498 383.959991 38.437 385.134003 37.263401 L 387.937988 41.305801 C 386.372986 42.827099 384.503998 44.000702 382.329987 44.826599 C 380.157013 45.609001 377.809998 46.000198 375.289001 46.000198 Z M 395.343994 45.2178 L 395.343994 13.7262 L 401.472992 13.7262 L 401.472992 45.2178 L 395.343994 45.2178 Z M 400.950989 19.2682 C 401.733002 18.094601 402.690002 17.029602 403.820007 16.073399 C 404.950012 15.1171 406.188995 14.378201 407.536011 13.856598 C 408.927002 13.2915 410.339996 13.008999 411.773987 13.008999 L 411.773987 19.202999 C 411.209015 19.072601 410.535004 19.007401 409.752991 19.007401 C 408.665985 19.007401 407.515015 19.2682 406.296997 19.789803 C 405.079987 20.267899 403.993988 20.919899 403.036987 21.7458 C 402.080994 22.528198 401.428986 23.332298 401.080994 24.158199 L 400.950989 19.2682 Z M 429.757996 46.000198 C 426.671997 46.000198 423.890015 45.304699 421.411987 43.913799 C 418.977997 42.479401 417.065002 40.501598 415.674988 37.980598 C 414.326996 35.459499 413.653015 32.6124 413.653015 29.4394 C 413.653015 26.309799 414.326996 23.484398 415.674988 20.963402 C 417.065002 18.442299 418.977997 16.486301 421.411987 15.095398 C 423.890015 13.660999 426.671997 12.943802 429.757996 12.943802 C 432.583008 12.943802 434.951996 13.4436 436.86499 14.443401 C 438.777008 15.4431 440.364014 16.7906 441.623993 18.485802 L 437.582001 22.267403 C 436.669006 20.963402 435.582001 20.007099 434.321991 19.398598 C 433.061005 18.746597 431.648987 18.420601 430.084015 18.420601 C 428.084015 18.420601 426.324005 18.898701 424.803009 19.855 C 423.281006 20.767799 422.108002 22.0718 421.282013 23.766998 C 420.455994 25.418701 420.042999 27.3095 420.042999 29.4394 C 420.042999 31.569201 420.455994 33.4818 421.282013 35.176998 C 422.108002 36.8722 423.281006 38.197899 424.803009 39.154202 C 426.324005 40.067001 428.084015 40.523399 430.084015 40.523399 C 431.648987 40.523399 433.061005 40.219101 434.321991 39.6106 C 435.582001 38.958599 436.669006 37.980598 437.582001 36.676601 L 441.623993 40.458199 C 440.364014 42.1534 438.777008 43.500801 436.86499 44.500599 C 434.951996 45.500301 432.583008 46.000198 429.757996 46.000198 Z M 460.40799 46.000198 C 457.321991 46.000198 454.518005 45.326401 451.997009 43.979 C 449.519012 42.588001 447.562988 40.632 446.128998 38.111 C 444.738007 35.589901 444.042999 32.699402 444.042999 29.4394 C 444.042999 26.3967 444.716003 23.6366 446.063995 21.159 C 447.454987 18.637901 449.346008 16.638401 451.735992 15.160599 C 454.170013 13.682701 456.886993 12.943802 459.885986 12.943802 C 462.971985 12.943802 465.666992 13.682701 467.971008 15.160599 C 470.317993 16.638401 472.122009 18.6814 473.382996 21.289398 C 474.643005 23.853901 475.27301 26.766199 475.27301 30.026199 C 475.27301 30.2435 475.27301 30.482599 475.27301 30.743401 C 475.27301 31.0042 475.27301 31.264999 475.27301 31.525801 L 447.824005 31.525801 L 447.824005 27.092199 L 472.07901 27.092199 L 469.274994 28.2006 C 469.274994 26.5923 468.971008 25.0275 468.362 23.506203 C 467.796997 21.941399 466.819 20.637398 465.428009 19.5942 C 464.036987 18.551003 462.190002 18.0294 459.885986 18.0294 C 457.669006 18.0294 455.843994 18.551003 454.408997 19.5942 C 452.975006 20.637398 451.932007 21.984802 451.279999 23.6366 C 450.67099 25.2883 450.367004 27.0487 450.367004 28.917801 L 450.367004 29.7654 C 450.367004 31.764799 450.757996 33.612202 451.540985 35.3074 C 452.367004 37.002602 453.584015 38.371799 455.191986 39.415001 C 456.799988 40.4147 458.756012 40.9146 461.059998 40.9146 C 462.712006 40.9146 464.363007 40.610298 466.015015 40.001801 C 467.666992 39.3498 469.07901 38.437 470.252991 37.263401 L 473.057007 41.305801 C 471.492004 42.827099 469.622986 44.000702 467.449005 44.826599 C 465.276001 45.609001 462.928986 46.000198 460.40799 46.000198 Z"/>
</svg>
