<?xml version="1.0" encoding="utf-8"?>
<!-- Generator: Adobe Illustrator 28.2.0, SVG Export Plug-In . SVG Version: 6.00 Build 0)  -->
<svg version="1.1" id="Layer_1" xmlns="http://www.w3.org/2000/svg" xmlns:xlink="http://www.w3.org/1999/xlink" x="0px" y="0px"
	 viewBox="0 0 478.8 60.7" style="enable-background:new 0 0 478.8 60.7;" xml:space="preserve">
<style type="text/css">
	.st0{fill-rule:evenodd;clip-rule:evenodd;fill:#873EFF;}
	.st1{fill-rule:evenodd;clip-rule:evenodd;}
	.st2{fill:#873EFF;}
	.st3{fill-rule:evenodd;clip-rule:evenodd;fill:#FFFFFF;}
	.st4{fill:#FFFFFF;}
</style>
	<g>
	<path class="st1" d="M192.4,0.9v46h7.7V29.6h12.2c3.1,0,5.7-0.6,8-1.9c2.3-1.3,4-3,5.2-5.2c1.2-2.2,1.8-4.6,1.8-7.2
		c0-2.6-0.6-5-1.8-7.2c-1.2-2.2-2.9-4-5.2-5.2c-2.2-1.3-4.9-1.9-8-1.9H192.4z M200.1,22.8h11.2c1.6,0,2.9-0.3,4.1-0.9
		c1.2-0.6,2.2-1.5,2.9-2.7c0.7-1.1,1-2.5,1-3.9c0-1.5-0.3-2.8-1-3.9c-0.7-1.1-1.7-2-2.9-2.6c-1.2-0.6-2.6-1-4.1-1h-11.2V22.8z"/>
		<path d="M436.9,45.6c1.4,1.4,3.5,2.1,6.3,2.1c1.6,0,2.9-0.2,4-0.6c1.1-0.4,2-0.9,2.7-1.5l-1.7-5.2c-0.3,0.4-0.8,0.7-1.4,0.9
		c-0.6,0.2-1.2,0.3-1.9,0.3c-0.9,0-1.7-0.3-2.2-1s-0.9-1.5-1-2.6V19.7h6.8v-6.1h-6.8V4.5h-7v9.1h-5.5v6.1h5.5v19.7
		C434.7,42.1,435.5,44.2,436.9,45.6z"/>
		<path d="M459,40.9c-2.1-0.9-3.8-2-5-3.3l-3.2,5c1.7,1.7,3.8,2.9,6.2,3.9c2.5,0.9,5.1,1.3,8,1.3c2.9,0,5.4-0.4,7.4-1.3
		c2.1-0.9,3.6-2.2,4.7-3.7c1.1-1.6,1.7-3.4,1.7-5.5c0-2.3-0.6-4.1-1.8-5.4c-1.2-1.4-2.6-2.4-4.3-3c-1.7-0.6-3.8-1.3-6.4-1.9
		c-1.8-0.4-3.2-0.8-4.2-1.1c-1-0.3-1.9-0.8-2.6-1.3c-0.6-0.6-1-1.4-1-2.3c0-1.2,0.6-2.1,1.7-2.8c1.1-0.7,2.7-1,4.6-1
		c2,0,3.9,0.4,5.7,1.1c1.7,0.7,3.1,1.7,4.2,2.9l3-4.9c-1.6-1.4-3.5-2.6-5.7-3.4c-2.2-0.9-4.6-1.3-7.2-1.3c-2.7,0-5,0.5-7,1.4
		c-2,0.9-3.5,2.2-4.5,3.7c-1,1.6-1.5,3.3-1.5,5.3c0,2.1,0.6,3.8,1.7,5.1c1.1,1.2,2.5,2.2,4.1,2.8c1.6,0.6,3.7,1.2,6.3,1.8
		c1.8,0.4,3.3,0.8,4.3,1.2c1.1,0.4,2,0.9,2.8,1.5c0.7,0.6,1.1,1.4,1.1,2.4c0,0.9-0.3,1.6-0.8,2.3c-0.5,0.6-1.2,1.1-2.2,1.5
		c-1,0.3-2.1,0.5-3.4,0.5C463.4,42.3,461.2,41.8,459,40.9z"/>
		<path d="M395.8,46.9V13.6h7v4.5c1.3-1.4,2.8-2.5,4.4-3.4c2.3-1.3,4.8-1.9,7.7-1.9c3.1,0,5.4,0.7,7,2.1c1.5,1.4,2.5,2.9,2.8,4.6
		c0.4,1.6,0.6,3.3,0.6,5.2v22.3h-7V27c0-1.5-0.1-2.8-0.3-3.9c-0.2-1.1-0.8-2.1-1.7-2.9c-1-0.9-2.4-1.3-4.4-1.3c-2.1,0-4,0.5-5.7,1.5
		c-1.4,0.8-2.5,1.8-3.4,3v23.4H395.8z"/>
		<path class="st1" d="M365.2,45.6c2.7,1.4,5.7,2.1,9,2.1c2.6,0,5.1-0.4,7.4-1.2c2.3-0.8,4.3-2,6-3.7l-3.2-4.6
		c-1.2,1.2-2.7,2.1-4.4,2.8c-1.7,0.6-3.4,1-5.2,1c-2.4,0-4.4-0.5-6.1-1.6s-2.9-2.5-3.7-4.2c-0.6-1.2-0.9-2.4-1.1-3.7h25.9v-1.7
		c0-3.4-0.7-6.5-2-9.2c-1.3-2.8-3.2-4.9-5.7-6.5c-2.5-1.6-5.3-2.3-8.6-2.3c-3.2,0-6.1,0.8-8.7,2.3c-2.6,1.6-4.6,3.7-6.1,6.3
		c-1.4,2.6-2.1,5.5-2.1,8.8c0,3.4,0.8,6.5,2.3,9.2C360.5,42.1,362.5,44.2,365.2,45.6z M383.2,27.6h-19.3c0.1-1.2,0.4-2.3,0.8-3.3
		c0.6-1.7,1.7-3.1,3.2-4.2c1.5-1.1,3.3-1.7,5.6-1.7c2.4,0,4.3,0.6,5.7,1.7c1.5,1.1,2.5,2.4,3.1,4C382.8,25.3,383.1,26.5,383.2,27.6z
		"/>
		<path d="M343.7,25.1c0-1.9-0.5-3.4-1.4-4.5c-0.9-1.1-2.2-1.7-4-1.7c-1.7,0-3.2,0.4-4.6,1.3c-1.4,0.9-2.6,1.9-3.4,3.2v23.5h-7V25.1
		c0-1.9-0.5-3.4-1.4-4.5c-0.9-1.1-2.2-1.7-4-1.7c-1.6,0-3.1,0.4-4.5,1.3c-1.4,0.9-2.5,1.9-3.4,3.2l-0.1,0.1v23.4h-7V13.6h7v4.6
		c0.4-0.6,1-1.3,1.9-2c1.1-0.9,2.4-1.7,4-2.3c1.6-0.7,3.3-1,5.2-1c2,0,3.7,0.4,5,1.2c1.4,0.8,2.4,1.9,3.1,3.4c0.3,0.5,0.5,1,0.7,1.6
		c1-1.6,2.4-3,4.3-4.2c2.2-1.4,4.7-2.1,7.4-2.1c2,0,3.6,0.4,5,1.2c1.4,0.8,2.4,1.9,3.1,3.4c0.7,1.5,1,3.3,1,5.4v24.1h-6.9V25.1z"/>
		<path d="M270.7,54.2c-0.6-0.1-1-0.2-1.3-0.4l-1.1,6.2c0.6,0.1,1.2,0.3,2,0.3c0.8,0.1,1.5,0.1,2.3,0.1c1.7,0,3.2-0.2,4.6-0.7
		s2.5-1.2,3.6-2.3c1.1-1.1,2-2.4,2.7-4.1v-0.1c0,0,0.1,0,0.1-0.1l16.2-39.5h-7.4l-9.9,25.3l-9.9-25.3H265l13.7,33.7l-1.7,4
		c-0.5,1.1-1.1,1.8-1.8,2.3c-0.7,0.5-1.7,0.7-2.8,0.7C271.8,54.3,271.2,54.3,270.7,54.2z"/>
		<path class="st1" d="M243.9,47.8c-2.9,0-5.4-0.7-7.7-2.1c-2.3-1.4-4-3.4-5.3-6.1c-1.2-2.6-1.9-5.7-1.9-9.3c0-3.5,0.6-6.6,1.9-9.2
		c1.3-2.7,3.1-4.7,5.3-6.1c2.3-1.4,4.8-2.1,7.7-2.1c2.3,0,4.5,0.6,6.5,1.7c1.7,0.9,3.2,2.2,4.3,3.8v-4.7h6.9v33.3h-6.9v-4.7
		c-1.2,1.6-2.6,2.9-4.3,3.8C248.4,47.2,246.3,47.8,243.9,47.8z M254.8,37V23.7c-0.7-1.2-1.8-2.2-3.3-3c-1.8-1.1-3.6-1.7-5.5-1.7
		c-1.9,0-3.6,0.5-5.1,1.4c-1.5,1-2.6,2.3-3.4,4c-0.7,1.7-1.1,3.7-1.1,5.9c0,3.4,0.9,6.1,2.6,8.2c1.7,2.1,4.1,3.1,7,3.1
		c1.9,0,3.7-0.5,5.5-1.5C252.9,39.2,254,38.2,254.8,37z"/>
		<path class="st2" d="M23.4,47.8c5.4,0,9.7-2.6,12.9-8.7l7.2-13.5V37c0,6.7,4.4,10.8,11.1,10.8c5.3,0,9.2-2.3,13-8.7l16.6-28
		c3.6-6.1,1.1-10.8-6.9-10.8c-4.3,0-7.1,1.4-9.6,6.1L56.2,27.8V8.7c0-5.7-2.7-8.5-7.7-8.5c-4,0-7.1,1.7-9.6,6.5L28.1,27.8V8.9
		c0-6.1-2.5-8.7-8.6-8.7H7.1C2.4,0.2,0,2.4,0,6.4s2.5,6.3,7.1,6.3h5.1v24.1C12.2,43.7,16.7,47.8,23.4,47.8z"/>
		<path class="st0" d="M108.4,0.2C94.9,0.2,84.5,10.3,84.5,24c0,13.7,10.4,23.7,23.9,23.7c13.5,0,23.8-10.1,23.9-23.7
		C132.3,10.3,121.9,0.2,108.4,0.2z M108.4,33.1c-5.1,0-8.6-3.8-8.6-9.1c0-5.3,3.5-9.2,8.6-9.2c5.1,0,8.6,3.9,8.6,9.2
		C117,29.3,113.6,33.1,108.4,33.1z"/>
		<path class="st0" d="M135.6,24c0-13.7,10.4-23.8,23.9-23.8c13.5,0,23.9,10.2,23.9,23.8c0,13.6-10.4,23.7-23.9,23.7
		C146,47.8,135.6,37.7,135.6,24z M151,24c0,5.3,3.4,9.1,8.5,9.1c5.1,0,8.6-3.8,8.6-9.1c0-5.3-3.5-9.2-8.6-9.2S151,18.7,151,24z"/>
</g>
</svg>
